<?xml version="1.0" encoding="utf-8"?>
<!-- Generator: Adobe Illustrator 21.0.0, SVG Export Plug-In . SVG Version: 6.00 Build 0)  -->
<svg version="1.1" id="Layer_1" xmlns="http://www.w3.org/2000/svg" xmlns:xlink="http://www.w3.org/1999/xlink" x="0px" y="0px"
	 viewBox="0 0 438.1 86.2" style="enable-background:new 0 0 438.1 86.2;" xml:space="preserve">
<style type="text/css">
	.st0{enable-background:new    ;}
	.st1{fill:#212121;}
	.st2{fill:#4CAF50;}
</style>
<g class="st0">
	<path class="st1" d="M113,59.4h-7.6V24.6h24.3v6.9H113V59.4z"/>
	<path class="st1" d="M127.4,65.6l2.5-5.5c1,0.6,2.2,1,3.2,1c1.3,0,2-0.4,2.6-1.7l-10.4-26.7h8l6.1,18.1l5.8-18.1h7.8L142.9,60
		c-2,5.4-4.2,7.5-8.7,7.5C131.4,67.5,129.4,66.8,127.4,65.6z"/>
	<path class="st1" d="M157.6,32.7h7.6l7.2,11.2l7.3-11.2h7.6v26.6h-7.6v-16l-7.4,10.9L165,43.5v15.8h-7.5V32.7z"/>
	<path class="st1" d="M192.6,51.6c0-5.8,4.4-8.5,10.7-8.5c2.7,0,4.6,0.4,6.5,1.1v-0.4c0-3.1-1.9-4.9-5.7-4.9c-2.9,0-4.9,0.5-7.4,1.4
		l-1.9-5.8c2.9-1.3,5.8-2.1,10.3-2.1c4.1,0,7.1,1.1,9,3c2,2,2.9,4.9,2.9,8.5v15.4h-7.3v-2.9c-1.8,2-4.4,3.4-8,3.4
		C196.7,59.9,192.6,57,192.6,51.6z M209.9,50v-1.3c-1.3-0.6-3-1-4.8-1c-3.2,0-5.2,1.3-5.2,3.8c0,2,1.7,3.2,4.1,3.2
		C207.5,54.6,209.9,52.7,209.9,50z"/>
</g>
<g class="st0">
	<path class="st2" d="M244.4,24.3h3.7l15.8,35h-4.2l-4.1-9.2h-18.9l-4.1,9.2h-4L244.4,24.3z M254.1,46.6l-7.9-17.7l-7.9,17.7H254.1z
		"/>
	<path class="st2" d="M270.2,33.7h17.4v3.4H274v22.3h-3.8V33.7z"/>
	<path class="st2" d="M293.2,33.7h3.8v5.2c2.1-3.1,5.1-5.7,9.8-5.7c6.2,0,12.3,4.9,12.3,13.4c0,8.4-6.1,13.4-12.3,13.4
		c-4.8,0-7.8-2.6-9.8-5.5v12.9h-3.8V33.7z M315.2,46.5c0-6.1-4.2-9.9-9-9.9c-4.8,0-9.3,4-9.3,10s4.5,9.9,9.3,9.9
		C311.1,56.5,315.2,52.8,315.2,46.5z"/>
	<path class="st2" d="M324.6,46.5c0-7.3,5.7-13.4,13.4-13.4c7.7,0,13.4,6.1,13.4,13.4c0,7.3-5.7,13.4-13.5,13.4
		C330.2,60,324.6,53.9,324.6,46.5z M347.4,46.5c0-5.5-4.1-10-9.5-10c-5.6,0-9.4,4.5-9.4,10c0,5.5,4.1,10,9.5,10
		C343.5,56.5,347.4,52.1,347.4,46.5z"/>
</g>
<g class="st0">
	<path class="st1" d="M366.2,31.6h-10.6v-7.1h28.8v7.1h-10.6v27.7h-7.6V31.6z"/>
	<path class="st1" d="M383.3,46.1c0-7.6,5.4-13.9,13.2-13.9c8.9,0,13,6.9,13,14.5c0,0.6,0,1.3-0.1,2h-18.5c0.7,3.4,3.1,5.2,6.5,5.2
		c2.5,0,4.4-0.8,6.5-2.7l4.3,3.8c-2.5,3.1-6.1,5-10.9,5C389.2,60,383.3,54.3,383.3,46.1z M402.1,44c-0.4-3.4-2.4-5.7-5.6-5.7
		c-3.1,0-5.2,2.2-5.8,5.7H402.1z"/>
	<path class="st1" d="M420.7,45.8l-9-13.1h8.1l5,7.7l5-7.7h7.9l-9,13l9.4,13.7H430l-5.4-8.3l-5.4,8.3h-7.9L420.7,45.8z"/>
</g>
<g>
	<path class="st2" d="M78,65.5c1.5-2.7,5.5-2.2,6.3,0.8c0.8,3,1.5,6.1,1.8,9.2c0.5,3.8-0.8,8.4-4.8,9.8c-6,2-12.3,0.3-18.3-0.6
		c-9.1-1.7-18.3-3.1-27.1-6c-5-1.6-9.6-5.1-11.7-9.9c-2.7-7.4-2.1-15.5-0.3-23v-0.1c0.6-2.3,4.1-1.7,3.9,0.7
		c-0.3,5.6,0.7,11.2,3.6,16.1c3.9,6.2,11.4,8.5,18.2,10c7.9,1.3,17.1,3.1,24.1-1.9C75.7,69.1,77,67.4,78,65.5z"/>
	<path class="st1" d="M65.5,8.2c-2.7-1.5-2.2-5.5,0.8-6.3c3-0.8,6.1-1.5,9.2-1.8c3.8-0.5,8.4,0.8,9.8,4.8c2,6,0.3,12.3-0.6,18.3
		c-1.7,9.1-3.1,18.3-6,27.1c-1.6,5-5.1,9.6-9.9,11.7c-7.4,2.7-15.5,2.1-23,0.3h-0.1c-2.3-0.6-1.7-4.1,0.7-3.9
		c5.6,0.3,11.2-0.7,16.1-3.6c6.2-3.9,8.5-11.4,10-18.2c1.3-7.9,3.1-17.1-1.9-24.1C69.1,10.6,67.4,9.2,65.5,8.2z"/>
	<path class="st2" d="M8.1,20.7c-1.5,2.7-5.5,2.2-6.3-0.8S0.3,13.8,0,10.7c-0.5-3.8,0.8-8.4,4.8-9.8c6-2,12.3-0.3,18.3,0.6
		c9.1,1.7,18.3,3.1,27.1,6c5,1.6,9.6,5.1,11.7,9.9c2.7,7.4,2.1,15.5,0.3,23v0.1c-0.6,2.3-4.1,1.7-3.9-0.7c0.3-5.6-0.7-11.2-3.6-16.1
		c-3.9-6.2-11.4-8.5-18.2-10c-7.9-1.3-17.1-3.1-24.1,1.9C10.4,17.2,9.1,18.8,8.1,20.7z"/>
	<path class="st1" d="M20.7,77.2c2.7,1.5,2.2,5.5-0.8,6.3s-6.1,1.5-9.2,1.8c-3.8,0.5-8.4-0.8-9.8-4.8c-2-6-0.3-12.3,0.6-18.3
		c1.7-9.1,3.1-18.3,6-27.1c1.6-5,5.1-9.6,9.9-11.7c7.4-2.7,15.5-2.1,23-0.3h0.1c2.3,0.6,1.7,4.1-0.7,3.9c-5.6-0.3-11.2,0.7-16.1,3.6
		c-6.2,3.9-8.5,11.4-10,18.2C12.6,56.9,10.8,66,15.8,73C17.2,74.8,18.8,76.2,20.7,77.2z"/>
</g>
</svg>
