<?xml version="1.0" encoding="utf-8"?>
<!-- Generator: Adobe Illustrator 19.2.0, SVG Export Plug-In . SVG Version: 6.00 Build 0)  -->
<svg version="1.1" id="Layer_1" xmlns="http://www.w3.org/2000/svg" xmlns:xlink="http://www.w3.org/1999/xlink" x="0px" y="0px"
	 viewBox="0 0 431.9 86.2" style="enable-background:new 0 0 431.9 86.2;" xml:space="preserve">
<style type="text/css">
	.st0{fill:#212121;}
	.st1{font-family:'GothamPro-Bold';}
	.st2{font-size:49.672px;}
	.st3{fill:#4CAF50;}
	.st4{font-family:'GothamPro';}
</style>
<text transform="matrix(1 0 0 1 101.1591 59.3557)"><tspan x="0" y="0" class="st0 st1 st2">Гума</tspan><tspan x="125.5" y="0" class="st3 st4 st2">Агро</tspan><tspan x="252.8" y="0" class="st0 st1 st2">Тех</tspan></text>
<g>
	<path class="st3" d="M78,65.5c1.5-2.7,5.5-2.2,6.3,0.8c0.8,3,1.5,6.1,1.8,9.2c0.5,3.8-0.8,8.4-4.8,9.8c-6,2-12.3,0.3-18.3-0.6
		c-9.1-1.7-18.3-3.1-27.1-6c-5-1.6-9.6-5.1-11.7-9.9c-2.7-7.4-2.1-15.5-0.3-23c0,0,0-0.1,0-0.1c0.6-2.3,4.1-1.7,3.9,0.7
		c-0.3,5.6,0.7,11.2,3.6,16.1c3.9,6.2,11.4,8.5,18.2,10c7.9,1.3,17.1,3.1,24.1-1.9C75.7,69.1,77,67.4,78,65.5z"/>
	<path class="st0" d="M65.5,8.2c-2.7-1.5-2.2-5.5,0.8-6.3c3-0.8,6.1-1.5,9.2-1.8c3.8-0.5,8.4,0.8,9.8,4.8c2,6,0.3,12.3-0.6,18.3
		c-1.7,9.1-3.1,18.3-6,27.1c-1.6,5-5.1,9.6-9.9,11.7c-7.4,2.7-15.5,2.1-23,0.3c0,0-0.1,0-0.1,0c-2.3-0.6-1.7-4.1,0.7-3.9
		c5.6,0.3,11.2-0.7,16.1-3.6c6.2-3.9,8.5-11.4,10-18.2c1.3-7.9,3.1-17.1-1.9-24.1C69.1,10.6,67.4,9.2,65.5,8.2z"/>
	<path class="st3" d="M8.1,20.7c-1.5,2.7-5.5,2.2-6.3-0.8c-0.8-3-1.5-6.1-1.8-9.2c-0.5-3.8,0.8-8.4,4.8-9.8c6-2,12.3-0.3,18.3,0.6
		c9.1,1.7,18.3,3.1,27.1,6c5,1.6,9.6,5.1,11.7,9.9c2.7,7.4,2.1,15.5,0.3,23c0,0,0,0.1,0,0.1c-0.6,2.3-4.1,1.7-3.9-0.7
		c0.3-5.6-0.7-11.2-3.6-16.1c-3.9-6.2-11.4-8.5-18.2-10c-7.9-1.3-17.1-3.1-24.1,1.9C10.4,17.2,9.1,18.8,8.1,20.7z"/>
	<path class="st0" d="M20.7,77.2c2.7,1.5,2.2,5.5-0.8,6.3c-3,0.8-6.1,1.5-9.2,1.8c-3.8,0.5-8.4-0.8-9.8-4.8c-2-6-0.3-12.3,0.6-18.3
		c1.7-9.1,3.1-18.3,6-27.1c1.6-5,5.1-9.6,9.9-11.7c7.4-2.7,15.5-2.1,23-0.3c0,0,0.1,0,0.1,0c2.3,0.6,1.7,4.1-0.7,3.9
		c-5.6-0.3-11.2,0.7-16.1,3.6c-6.2,3.9-8.5,11.4-10,18.2C12.6,56.9,10.8,66,15.8,73C17.2,74.8,18.8,76.2,20.7,77.2z"/>
</g>
</svg>
